<svg width="44" height="44" viewBox="0 0 44 44" fill="none" xmlns="http://www.w3.org/2000/svg">
<rect width="44" height="44" rx="4" fill="#FDE8D2" fill-opacity="0.2"/>
<rect x="0.5" y="0.5" width="43" height="43" rx="3.5" stroke="#E7E3FC" stroke-opacity="0.23"/>
<path d="M20.7166 15.5809L15.0691 21.2029C14.6446 21.6259 14.6446 22.3744 15.0691 22.7989L20.7166 28.4209C21.1576 28.8589 21.8701 28.8574 22.3081 28.4164C22.7461 27.9754 22.7461 27.2644 22.3051 26.8249L18.5896 23.1244H28.1221C28.7446 23.1244 29.2471 22.6204 29.2471 21.9994C29.2471 21.3784 28.7446 20.8744 28.1221 20.8744H18.5896L22.3051 17.1754C22.5256 16.9549 22.6351 16.6669 22.6351 16.3774C22.6351 16.0909 22.5256 15.8029 22.3081 15.5839C21.8701 15.1444 21.1576 15.1429 20.7166 15.5809" fill="white"/>
</svg>
