<svg width="57" height="57" viewBox="0 0 57 57" fill="none" xmlns="http://www.w3.org/2000/svg">
<rect y="13" width="44" height="44" rx="4" fill="#FDE8D2" fill-opacity="0.2"/>
<rect x="0.5" y="13.5" width="43" height="43" rx="3.5" stroke="#E7E3FC" stroke-opacity="0.23"/>
<path d="M22 45C23.1 45 24 44.1 24 43H20C20 44.1 20.89 45 22 45ZM28 39V34C28 30.93 26.36 28.36 23.5 27.68V27C23.5 26.17 22.83 25.5 22 25.5C21.17 25.5 20.5 26.17 20.5 27V27.68C17.63 28.36 16 30.92 16 34V39L14 41V42H30V41L28 39Z" fill="#C1C2C4"/>
<rect x="31" width="26" height="26" rx="13" fill="#F7A701"/>
<rect x="31.5" y="0.5" width="25" height="25" rx="12.5" stroke="#3A3541" stroke-opacity="0.12"/>
<path d="M40.8525 18H39.2393V11.5674C39.2393 11.3532 39.2415 11.139 39.2461 10.9248C39.2507 10.7106 39.2552 10.501 39.2598 10.2959C39.2689 10.0908 39.2803 9.89486 39.2939 9.70801C39.1982 9.81283 39.0798 9.92676 38.9385 10.0498C38.8018 10.1729 38.6559 10.3005 38.501 10.4326L37.3525 11.3486L36.5459 10.3301L39.5127 8.00586H40.8525V18ZM51.1082 18H44.3406V16.79L46.9314 14.165C47.4327 13.6546 47.8452 13.2148 48.1687 12.8457C48.4923 12.472 48.7316 12.1188 48.8865 11.7861C49.046 11.4535 49.1258 11.0911 49.1258 10.6992C49.1258 10.2161 48.9868 9.85156 48.7088 9.60547C48.4308 9.35482 48.0639 9.22949 47.6082 9.22949C47.1753 9.22949 46.7742 9.31608 46.4051 9.48926C46.0405 9.65788 45.6622 9.89941 45.2703 10.2139L44.3885 9.1543C44.6665 8.91732 44.9627 8.70085 45.2771 8.50488C45.5962 8.30892 45.9516 8.15397 46.3436 8.04004C46.7355 7.92155 47.1821 7.8623 47.6834 7.8623C48.3169 7.8623 48.8637 7.97624 49.324 8.2041C49.7843 8.42741 50.1375 8.73958 50.3836 9.14062C50.6342 9.54167 50.7596 10.0088 50.7596 10.542C50.7596 11.0798 50.6525 11.5765 50.4383 12.0322C50.2241 12.488 49.9187 12.9391 49.5223 13.3857C49.1258 13.8278 48.6541 14.3086 48.1072 14.8281L46.3777 16.5166V16.5918H51.1082V18Z" fill="white"/>
</svg>
