<svg width="44" height="44" viewBox="0 0 44 44" fill="none" xmlns="http://www.w3.org/2000/svg">
<path d="M40 0H4C1.79086 0 0 1.79086 0 4V40C0 42.2091 1.79086 44 4 44H40C42.2091 44 44 42.2091 44 40V4C44 1.79086 42.2091 0 40 0Z" fill="#FDE8D2" fill-opacity="0.2"/>
<path d="M40 0.5H4C2.067 0.5 0.5 2.067 0.5 4V40C0.5 41.933 2.067 43.5 4 43.5H40C41.933 43.5 43.5 41.933 43.5 40V4C43.5 2.067 41.933 0.5 40 0.5Z" stroke="#E7E3FC" stroke-opacity="0.23"/>
<path d="M22 32C23.1 32 24 31.1 24 30H20C20 31.1 20.89 32 22 32ZM28 26V21C28 17.93 26.36 15.36 23.5 14.68V14C23.5 13.17 22.83 12.5 22 12.5C21.17 12.5 20.5 13.17 20.5 14V14.68C17.63 15.36 16 17.92 16 21V26L14 28V29H30V28L28 26Z" fill="#C1C2C4"/>
</svg>
