<svg width="56" height="56" viewBox="0 0 56 56" fill="none" xmlns="http://www.w3.org/2000/svg">
<path opacity="0.4" d="M51.3332 28.0116C51.3332 40.8657 40.8602 51.3337 27.9998 51.3337C15.1395 51.3337 4.6665 40.8657 4.6665 28.0116C4.6665 15.1349 15.1395 4.66699 27.9998 4.66699C40.8602 4.66699 51.3332 15.1349 51.3332 28.0116Z" fill="white"/>
<path d="M22.0005 34C22.0005 34.5523 22.4482 35 23.0005 35H25.0005C25.5528 35 26.0005 34.5523 26.0005 34V22C26.0005 21.4477 25.5528 21 25.0005 21H23.0005C22.4482 21 22.0005 21.4477 22.0005 22V34ZM31.0005 21C30.4482 21 30.0005 21.4477 30.0005 22V34C30.0005 34.5523 30.4482 35 31.0005 35H33.0005C33.5528 35 34.0005 34.5523 34.0005 34V22C34.0005 21.4477 33.5528 21 33.0005 21H31.0005Z" fill="white"/>
</svg>
